<svg xmlns="http://www.w3.org/2000/svg" version="1.1" xmlns:xlink="http://www.w3.org/1999/xlink" xmlns:svgjs="http://svgjs.dev/svgjs" viewBox="0 0 2400 800"><defs><linearGradient x1="50%" y1="0%" x2="50%" y2="100%" id="sssurf-grad"><stop stop-color="#48249c" stop-opacity="1" offset="0%"></stop><stop stop-color="hsla(212, 72%, 59%, 1.00)" stop-opacity="1" offset="100%"></stop></linearGradient></defs><g fill="url(#sssurf-grad)" transform="matrix(1,0,0,1,0,-99.22274780273438)"><path d="M 0 341.7120544575452 Q 450 622.2969856973159 600 318.8896765994544 Q 1050 559.8921420214723 1200 326.8841261969649 Q 1650 596.3742673065183 1800 339.4595401275837 Q 2250 513.5097236020645 2400 331.61051631401995 L 2400 800 L 0 800 L 0 318.44551153467694 Z" transform="matrix(1,0,0,1,0,35)" opacity="0.05"></path><path d="M 0 341.7120544575452 Q 450 622.2969856973159 600 318.8896765994544 Q 1050 559.8921420214723 1200 326.8841261969649 Q 1650 596.3742673065183 1800 339.4595401275837 Q 2250 513.5097236020645 2400 331.61051631401995 L 2400 800 L 0 800 L 0 318.44551153467694 Z" transform="matrix(1,0,0,1,0,70)" opacity="0.21"></path><path d="M 0 341.7120544575452 Q 450 622.2969856973159 600 318.8896765994544 Q 1050 559.8921420214723 1200 326.8841261969649 Q 1650 596.3742673065183 1800 339.4595401275837 Q 2250 513.5097236020645 2400 331.61051631401995 L 2400 800 L 0 800 L 0 318.44551153467694 Z" transform="matrix(1,0,0,1,0,105)" opacity="0.37"></path><path d="M 0 341.7120544575452 Q 450 622.2969856973159 600 318.8896765994544 Q 1050 559.8921420214723 1200 326.8841261969649 Q 1650 596.3742673065183 1800 339.4595401275837 Q 2250 513.5097236020645 2400 331.61051631401995 L 2400 800 L 0 800 L 0 318.44551153467694 Z" transform="matrix(1,0,0,1,0,140)" opacity="0.53"></path><path d="M 0 341.7120544575452 Q 450 622.2969856973159 600 318.8896765994544 Q 1050 559.8921420214723 1200 326.8841261969649 Q 1650 596.3742673065183 1800 339.4595401275837 Q 2250 513.5097236020645 2400 331.61051631401995 L 2400 800 L 0 800 L 0 318.44551153467694 Z" transform="matrix(1,0,0,1,0,175)" opacity="0.68"></path><path d="M 0 341.7120544575452 Q 450 622.2969856973159 600 318.8896765994544 Q 1050 559.8921420214723 1200 326.8841261969649 Q 1650 596.3742673065183 1800 339.4595401275837 Q 2250 513.5097236020645 2400 331.61051631401995 L 2400 800 L 0 800 L 0 318.44551153467694 Z" transform="matrix(1,0,0,1,0,210)" opacity="0.84"></path><path d="M 0 341.7120544575452 Q 450 622.2969856973159 600 318.8896765994544 Q 1050 559.8921420214723 1200 326.8841261969649 Q 1650 596.3742673065183 1800 339.4595401275837 Q 2250 513.5097236020645 2400 331.61051631401995 L 2400 800 L 0 800 L 0 318.44551153467694 Z" transform="matrix(1,0,0,1,0,245)" opacity="1"></path></g></svg>